# xmcd
#
# Track frame offsets:
#   150
#   17594
#   33424
#   50398
#   68518
#   90568
#   107026
#   123081
#   135584
#   149102
#   166526
#   179039
#   191356
#   207205
#   223027
#   239656
#   258407
#   278788
#   291250
#   305113
#   315437
#   328884
#   345336
#
# Disc length: 4784 seconds
#
# Revision: 0
# Processed by: cddbd v1.5.2PL0 Copyright (c) Steve Scherf et al.
# Submitted via: GXTranscoder 2.0.1939
#
DISCID=5812ae17
DTITLE=Various Artist - various
DYEAR=2007
DGENRE=pop
TTITLE0=
TTITLE1=
TTITLE2=jürgen drews - Gloria
TTITLE3=Jürgen drews - verhüterli
TTITLE4=jürgen drews - könig von mallorca
TTITLE5=
TTITLE6=
TTITLE7=
TTITLE8=
TTITLE9=
TTITLE10=
TTITLE11=
TTITLE12=
TTITLE13=ich and ich - du erinnerst mich an liebe
TTITLE14=ich and ich - dienen
TTITLE15=
TTITLE16=
TTITLE17=DENNIS and DIE MOONBEATS - Goodbey
TTITLE18=DENNIS and DIE MOONBEATS - geh noch nicht
TTITLE19=DENNIS and DIE MOONBEATS - pures gold
TTITLE20=DENNIS and DIE MOONBEATS - marie
TTITLE21=DENNIS and DIE MOONBEATS - angelina
TTITLE22=DENNIS and DIE MOONBEATS - i love you
EXTD=
EXTT0=
EXTT1=
EXTT2=
EXTT3=
EXTT4=
EXTT5=
EXTT6=
EXTT7=
EXTT8=
EXTT9=
EXTT10=
EXTT11=
EXTT12=
EXTT13=
EXTT14=
EXTT15=
EXTT16=
EXTT17=
EXTT18=
EXTT19=
EXTT20=
EXTT21=
EXTT22=
PLAYORDER=
